<svg xmlns="http://www.w3.org/2000/svg" width="240" height="240" viewBox="0 0 240 240" fill="none" stroke="currentColor" stroke-width="5.4" stroke-linecap="butt">
<defs>
  <mask id="eye" maskUnits="userSpaceOnUse">
    <rect x="0" y="0" width="240" height="240" fill="white"></rect>
    <path d="M 20 120 A 181.66666666666666 181.66666666666666 0 0 1 220 120 A 181.66666666666666 181.66666666666666 0 0 1 20 120 Z" fill="black"></path>
  </mask>
</defs>
<g mask="url(#eye)">
<line x1="120.00" y1="6.00" x2="120.00" y2="50.00"></line><line x1="130.22" y1="6.46" x2="126.27" y2="50.28"></line><line x1="140.36" y1="7.83" x2="132.50" y2="51.12"></line><line x1="150.33" y1="10.11" x2="138.62" y2="52.52"></line><line x1="160.06" y1="13.27" x2="144.60" y2="54.46"></line><line x1="169.46" y1="17.29" x2="150.37" y2="56.93"></line><line x1="178.47" y1="22.14" x2="155.90" y2="59.91"></line><line x1="187.01" y1="27.77" x2="161.14" y2="63.37"></line><line x1="195.01" y1="34.15" x2="166.06" y2="67.28"></line><line x1="202.40" y1="41.22" x2="170.60" y2="71.63"></line><line x1="209.13" y1="48.92" x2="174.73" y2="76.36"></line><line x1="215.14" y1="57.20" x2="178.42" y2="81.44"></line><line x1="220.39" y1="65.98" x2="181.64" y2="86.83"></line><line x1="224.83" y1="75.20" x2="184.37" y2="92.49"></line><line x1="228.42" y1="84.77" x2="186.57" y2="98.37"></line><line x1="231.14" y1="94.63" x2="188.24" y2="104.42"></line><line x1="232.97" y1="104.70" x2="189.37" y2="110.60"></line><line x1="233.89" y1="114.89" x2="189.93" y2="116.86"></line><line x1="233.89" y1="125.11" x2="189.93" y2="123.14"></line><line x1="232.97" y1="135.30" x2="189.37" y2="129.40"></line><line x1="231.14" y1="145.37" x2="188.24" y2="135.58"></line><line x1="228.42" y1="155.23" x2="186.57" y2="141.63"></line><line x1="224.83" y1="164.80" x2="184.37" y2="147.51"></line><line x1="220.39" y1="174.02" x2="181.64" y2="153.17"></line><line x1="215.14" y1="182.80" x2="178.42" y2="158.56"></line><line x1="209.13" y1="191.08" x2="174.73" y2="163.64"></line><line x1="202.40" y1="198.78" x2="170.60" y2="168.37"></line><line x1="195.01" y1="205.85" x2="166.06" y2="172.72"></line><line x1="187.01" y1="212.23" x2="161.14" y2="176.63"></line><line x1="178.47" y1="217.86" x2="155.90" y2="180.09"></line><line x1="169.46" y1="222.71" x2="150.37" y2="183.07"></line><line x1="160.06" y1="226.73" x2="144.60" y2="185.54"></line><line x1="150.33" y1="229.89" x2="138.62" y2="187.48"></line><line x1="140.36" y1="232.17" x2="132.50" y2="188.88"></line><line x1="130.22" y1="233.54" x2="126.27" y2="189.72"></line><line x1="120.00" y1="234.00" x2="120.00" y2="190.00"></line><line x1="109.78" y1="233.54" x2="113.73" y2="189.72"></line><line x1="99.64" y1="232.17" x2="107.50" y2="188.88"></line><line x1="89.67" y1="229.89" x2="101.38" y2="187.48"></line><line x1="79.94" y1="226.73" x2="95.40" y2="185.54"></line><line x1="70.54" y1="222.71" x2="89.63" y2="183.07"></line><line x1="61.53" y1="217.86" x2="84.10" y2="180.09"></line><line x1="52.99" y1="212.23" x2="78.86" y2="176.63"></line><line x1="44.99" y1="205.85" x2="73.94" y2="172.72"></line><line x1="37.60" y1="198.78" x2="69.40" y2="168.37"></line><line x1="30.87" y1="191.08" x2="65.27" y2="163.64"></line><line x1="24.86" y1="182.80" x2="61.58" y2="158.56"></line><line x1="19.61" y1="174.02" x2="58.36" y2="153.17"></line><line x1="15.17" y1="164.80" x2="55.63" y2="147.51"></line><line x1="11.58" y1="155.23" x2="53.43" y2="141.63"></line><line x1="8.86" y1="145.37" x2="51.76" y2="135.58"></line><line x1="7.03" y1="135.30" x2="50.63" y2="129.40"></line><line x1="6.11" y1="125.11" x2="50.07" y2="123.14"></line><line x1="6.11" y1="114.89" x2="50.07" y2="116.86"></line><line x1="7.03" y1="104.70" x2="50.63" y2="110.60"></line><line x1="8.86" y1="94.63" x2="51.76" y2="104.42"></line><line x1="11.58" y1="84.77" x2="53.43" y2="98.37"></line><line x1="15.17" y1="75.20" x2="55.63" y2="92.49"></line><line x1="19.61" y1="65.98" x2="58.36" y2="86.83"></line><line x1="24.86" y1="57.20" x2="61.58" y2="81.44"></line><line x1="30.87" y1="48.92" x2="65.27" y2="76.36"></line><line x1="37.60" y1="41.22" x2="69.40" y2="71.63"></line><line x1="44.99" y1="34.15" x2="73.94" y2="67.28"></line><line x1="52.99" y1="27.77" x2="78.86" y2="63.37"></line><line x1="61.53" y1="22.14" x2="84.10" y2="59.91"></line><line x1="70.54" y1="17.29" x2="89.63" y2="56.93"></line><line x1="79.94" y1="13.27" x2="95.40" y2="54.46"></line><line x1="89.67" y1="10.11" x2="101.38" y2="52.52"></line><line x1="99.64" y1="7.83" x2="107.50" y2="51.12"></line><line x1="109.78" y1="6.46" x2="113.73" y2="50.28"></line>
</g>
</svg>